<?xml version="1.0" encoding="utf-8"?>
<svg version="1.1" id="Layer_1" xmlns="http://www.w3.org/2000/svg" x="0px" y="0px"
	 viewBox="0 0 1600 500" style="enable-background:new 0 0 1600 500;" xml:space="preserve">
<style type="text/css">
	.st0{fill:#93CEB9;}
	.st1{fill:#87C6AB;}
</style>
<rect id="XMLID_2_" x="0" y="1" class="st0" width="1600" height="500"/>
<path id="XMLID_198_" class="st1" d="M1580.3,71c-10.1,6.8-22.9,1.3-38.6,21c-0.4,0.3-0.8,0.7-1.1,1c-9.1,8.3-8.4,10.6-19.3,20
	c-14.4,12.3-30.2,25.9-48.7,25.3c-20.9-0.6-23.7-18.6-43.3-17.3c-10.4,0.7-10.6,5.8-36.7,17.3c-15.3,6.7-22.9,10.1-31.3,10.7
	c-16.8,1.1-20.3-7.2-44-13.3c-14.5-3.8-34.9-9-53.3-0.7c-14.8,6.7-12.2,14.9-31.3,27.3c-12.7,8.3-27.7,18-42.7,14
	c-13.4-3.6-17.3-15.8-43.7-28.4c-2.6-1.2-3.9-1.9-5.3-2.3c-19.6-6.5-31.2,10.6-44.7,7.3c-16.4-4-12.6-32.7-29.3-38
	c-15.7-4.9-26.5,18-44,13.3c-17-4.5-18.3-29.1-34.7-30c-8.4-0.5-13.3,5.7-22.7,2.7c-2.4-0.8-4.4-1.9-6.1-3.2
	c-0.5-0.4-1.1-0.9-1.7-1.4c0,0,0,0,0,0c-0.4-0.3-4.3-5.5-6.9-16c-3.6-14.5-25.1,10.6-41.2,11.6h-2c-16.6-1.2,25.9-32.3,3-46.5
	c-18.7-11.5-18.2-9.6-20-11.1l-48.9,3.5c2.9,21.6,47.6,9.6,44.9,31.6c-1.5,11.6-18.3,16.6-20.1,22.4c-0.1,0.3-0.1,0.6-0.2,0.8
	c-1.9,11.7,22.8,33.3,41.1,30.1c12.3-2.1,16.4-14.5,24.7-12.7c11.3,2.5,7.9,26.1,22,32.7c12.8,6,23.6-10.1,37.3-4.7
	c16.3,6.4,13.1,33.8,26,36.7c12.7,2.8,22.7-22.2,36-19.3c11.6,2.5,9.1,22.5,24,29.3c14.6,6.6,20.3-15.5,39,3.7
	c13.7,14,18.1-14.3,34.6-0.4c21.8,18.4,62.4,21.5,89.1,5.4c19-11.5,54.7-33,81.7-21.3c16.4,7.1,13.4,19.4,28,23.3
	c25.3,6.8,40.9-28.8,72.7-25.3c19.7,2.2,21.2,16.7,39.3,16c19.8-0.8,25.3-23.3,54.6-37c19.3-9,17.7-0.3,49.7-10.8
	c13.7-4.5,23.4-26,31.6-33.3c0.8,0.1,1.5,0.3,2.3,0.5V41C1590.2,46.4,1594.9,61.2,1580.3,71z"/>
<path id="XMLID_199_" class="st1" d="M770.1,42.3L747.8,52l-30.9-11c-3.8,9.6-2.9,20.7,7.2,24c9.9,3.2,17.2-6.7,27.3-2.7
	c2.9,1.2,13.9,14.5-5.2,29c-0.7,0.5-1.3,0.9-1.8,1.3c-1.4,0.9-2.7,1.7-3.3,2.1c0,0-0.1,0-0.1,0.1c-0.1,0.1-0.3,0.2-0.4,0.3
	c-5.8,3.6-11.1-1.1-25.7,0.9c-20.3,2.8-22.8,13.6-38,14c-15.3,0.4-16.2-10.4-34-14c-26.5-5.4-39.3,15.7-54,8
	c-5.1-2.7-7.8-7.4-9.6-12.9c-2.5-10.3,12.1-14.1,12.6-19.7c0.5-5.7-8.7-12.8-18-15C559.8,53,555.1,63,541.3,62
	c-14.9-1.1-17.2-13.2-33-21H369c3.5,1.8,7.1,3.3,10.5,4.3c13.1,4,15.6-1.1,29,3c20.7,6.3,20.9,20.3,37,22.3
	c13.4,1.7,16.3-7.5,33.3-5.7c3.5,0.4,14.4,1.6,23,9.3c7.9,7.1,7.8,14.1,10.5,21.1c0.7,6,2.8,12.3,6.5,15.5c8.8,7.4,9.5,4.8,30,10
	c36.4,9.3,37.3,17.9,53,16c19.8-2.4,22.4-16.6,41-16c16.1,0.5,15.7,11.2,32,13c22.1,2.5,29.6-16.3,63-19c10.8-0.9,11.4,1,18-1
	c11.4-3.4,12.5-8,18.9-18.2c1.7-2.6,11.1-10.5,11.2-15.7c0.1-8.3-9-6.2-5.6-18.7C781.7,56,777,42.9,770.1,42.3z"/>
<path id="XMLID_200_" class="st1" d="M19,285.5c10.3-11.4,8.8-20.4,18-24c11.7-4.5,19.1,8.1,34,6c15.9-2.2,31.7-20,30-34
	c-2-17.2-29.6-22.1-28-33c1.5-10.3,26.5-7.3,37-25c7.9-13.4-1.1-24.1,7-33c9.6-10.5,26.1,0.4,44-6c14.8-5.3,24.8-20.4,30.6-35.5
	c5.6-14.3,2.4-26.6-6.1-37.8c-11.3-14.7-30.9-15.2-32-15.3c-10.1-0.1-20.4,5.7-24.7,2.5c-2.6-2-2.4-5.5-1.4-9.5l-26.4,1.3
	c1.3,13.3,9.4,28.5,23.4,27.6c10-0.7,18-7.2,26.8-6.1c7.4,0.9,15.1,4.9,18.2,13c3.4,8.7,2.3,17.7-4.5,24.3c-0.7,0.6-1.3,1.3-1.9,1.9
	c-8.7,8.8-15.3,13.4-27.9,12.9c-14.1-0.5-19.5-3.1-26.8,3.1c-5.8,4.9-21.9,7.1-28.3,21.6c-2.7,6.1,8.3,18.6,1.5,26.5
	C62,189.5,48.7,181.6,45,192.5c-5.5,16.1,8.3,28.4,2,35c-6.9,7.2-22.9-8.1-38-1c-4,1.9-6.8,4.8-9,8.3v64.7
	C7.3,296,14.1,290.9,19,285.5z"/>
<path id="XMLID_12_" class="st1" d="M582.2,208.1c12.8-17.9-8.8-39.6-30.3-39.1c-27.4,0.6-47.6-14.1-59.9-30.5
	c-10.9-14.4-11.4-32.7-35.7-34c-16.4-0.8-37.6,23.5-48.5,19.6c-17.7-6.3-14-36.8-41.6-38.1c-3.9-0.2-20.3,2.4-33.7,15
	c-4.2,4.1-9.4,8.3-16.7,11.7c-24,11-40-1.2-50,8c-16,14.7,13.7,56-1.3,71.3c-15.1,15.4-57.3-14.1-70,0.7c-8.2,9.5-1.6,34.3,13.3,48
	c23.9,22,54.4,16.7,66.7,34.7c10.7,15.7,1.8,37-18,46c-21.9,9.9-38.4-18-66-10.7c-30.4,8.1-29,47.1-57.3,52.7
	c-25.8,5.1-38.7-25-65.3-18.7c-22.4,5.3-20.9,28.5-43.3,34.7c-8.9,2.5-16.9,1-24.3-2v57.3c9.4-1.5,19.1-3.4,29-5.3
	c37.8-7.3,30.3-24.3,58-26.5c42.6-3.4,61.2,21.6,82.7,9.9c22.7-12.4,20.2-34.9,41.3-40c15.2-3.7,19.7,7.1,43.3,10
	c29,3.6,64.7-7.5,70.7-26.7c3.8-12.1-7.7-15.9-10.7-36.7c-5-35.4,9-44.6,0-64c-9.3-20-32.9-27.9-32.7-34
	c0.7-14.7,26.9,0.3,36.7-13.3c11.1-15.5-10.9-39.7,0.7-54c6.1-7.6,11.6,1.5,31.5-8.7c12.4-6.4,8.9-18.2,21.8-17.8
	c10.1,0.3,5.7,23.9,27,25.3c5.5,0.4,20.7,2.2,37.1-7.5c21.1-12.5,23,15,24.5,26.7c2.2,16.7,41.3,23.1,40,37.2
	c-2.1,23.3-45,29.5-44,46.2c1.1,18.2,52.8,24.3,52,39.3c-0.7,12.7-37.9,12.4-48,35.1c-6.7,15.1,2.5,31.5,6,37.6
	c15.4,27.3,43.5,29.1,43,42.8c-0.3,7.2-8.1,10.2-54,34.2c-41.2,21.6-45.1,24.5-55.3,25.6V501h82.8c4.3-8.8,7.8-17.8,20.5-25
	c26.1-14.8,57.4-2.8,62-12.8c4.3-9.4-23.2-18.8-23-38.5c0.2-16.3,19.2-19.8,19-35.1c-0.2-19.8-32.2-25-32-41.9
	c0.2-19,40.3-20.9,47-44.5c7.1-25.2-33.2-42.3-24-65.9C558.9,222.2,571.3,223.4,582.2,208.1z"/>
<path id="XMLID_11_" class="st1" d="M1600,267.1c-17.1,14.6-25.6,31-50,34c-25.8,3.2-31.5-13.2-55.3-7.3
	c-31.2,7.7-37.3,39.7-57.3,37.3c-17.3-2-16.6-26.5-38-33.3c-26-8.3-44.8,22.2-64.7,13.3c-22.3-9.9-15.7-55.5-34.7-59.3
	c-9.7-1.9-13.6,9.6-34.2,11.6c-12.4,1.2-22.4-1.6-44.6,5.6c-1.5,0.5-2.9,1.2-4.1,2.1c-7.6,2.9-16.2,8.7-26,19.8
	c-9,10.2-12.1,32.1-24.7,30.7c-10.6-1.2-11.7-12.3-25.6-8.3c-19.5,5.6-7,49-32.5,50.3c-15.8,0.8-21.5,20.6-26,34
	c-3,9-29.3,1.5-32.1,15.7c-0.7,3.6,15.5,25.7,5.8,34.8c-10.6,9.9-23.6-18.5-38.6-5.5c-14.2,12.3,0.4,37.1-8.7,42.6
	c-11.5,7-18.6-10-29-2.9c-4.1,2.8-7.3,1.7-11.6,18.8h154.1c3.5-2.8,6.2-5.6,6.2-10.1c0.1-12.2-19.7-14.8-21.3-29.3
	c-0.7-6.2,2.7-7.4,14-28.7c7.9-14.9,11.9-22.4,13.3-30c3.2-17.2-3.3-25.6,2-30c6.4-5.4,16.8,6.6,32.7,2.7c10.2-2.5,19.6-10.7,24-20
	c5.4-11.4,1.2-19.5,7.3-24.7c0,0,6.3-5.3,20-1.3c0.2,0.1,0.4,0.1,0.5,0.2c6.8,2.6,17.8-3.1,21-6.6c6.3-6.8,5.5-10.3,9.3-14
	c8.4-8.1,27.7-6.1,31.3,1.3c2.4,4.8-3.6,8.2-2.7,14.7c1.8,12.8,28.8,24.1,54.7,24c24.9-0.1,34.2-10.6,47.3-3.3
	c11.2,6.2,7.7,15.6,18.7,24c17.4,13.2,47.6,5.8,66-4c25.2-13.4,20.5-27.1,42-36c23.5-9.7,34.8,4.3,66-2c10-2,15.2-4.7,25.4-10.8
	L1600,267.1L1600,267.1z"/>
<path id="XMLID_8_" class="st1" d="M369.7-8c15.1,8.9,15.7,22.5,30.7,26c8.9,2.1,11.1-2.2,20,0.7c12.1,3.8,13.8,13.4,23,18.7
	c12.2,7,18.9-6.7,40.3-4.3c5,0.6,14.3,2.9,24.5,8c1.4,0.7,19.9,17.3,17.1,23c-3.8,7.9-39.5-1.2-71.7-9.3C427.2,48,419.3,44,402,43.7
	c-4.4-0.1-28.4,0.6-33-2.7c-18-13.2-30.3-12.3-36.2-15.4c-17.6-9.1-24.4-40.2-16.5-50.2C322.8-32.8,356.5-15.7,369.7-8z"/>
<path id="XMLID_9_" class="st1" d="M124.2,47.3c2.9-3.4,2-0.7,3.3-6.3c2.5-11.3,9.5-8.1,12.5-10.9c4.9-4.6,6.7-14,2.2-17.3
	c-5.5-4.1-11.9,2.7-30.2,1.9c-10.9-0.5-18.8-3.5-26.2-8.8C76-1.1,79.1-9.2,69.7-17.2c-11.1-9.4-30.1-10.5-34.2-4.2
	C30.2-13.1,50.4,7.5,51.3,8.5c7.8,7.9,11.9,23.1,25.8,22.6c7.6-0.3,17.1-5.2,20-3.4c5.5,3.4,3.3,7.4,3.9,14.6
	c0.4,5.5,2.4,5.5,4.1,7.3C110.9,55.9,119.3,53,124.2,47.3z"/>
<path id="XMLID_149_" class="st1" d="M770.9,53.9c12-14.3-7.3-15.5-27.9-9.6c-15,4.2,5.8-22.7-0.8-37.8
	c-2.5-5.6-13.6-26.4-36.2-35.7c-20.8-8.6-49.5-2-52.5,9c-3.4,12.6,24.6,39.8,49.5,39c5.7-0.2,12.6-1.9,15.8,2
	c4.7,5.8,2.4,9.9-1.8,20.2C711.8,53.3,767,58.5,770.9,53.9z"/>
<path id="XMLID_201_" class="st1" d="M857.8,42.9c-4.9-2.5-16-5-16-5C840,21.8,853,14.5,830.8,3.5c-13.9-6.9-30.6-6.7-33-14.3
	C794.5-21.1,830.6-50,847.5-41c14,7.5,2.7,34.7,21.5,60c10.8,14.5,18.6,13.6,23.1,16c11.4,6,13.6,7.4,14.3,7.9
	c3.3,2.1,2.3,13.2-2,17.4C897.4,67.2,887.5,57.9,857.8,42.9z"/>
<path id="XMLID_203_" class="st1" d="M1021.1-27.7c-5.1,25.4,8.3,57,28,62c12.6,3.2,17.2-7.3,31.3-4c19,4.5,21.5,26.2,34.7,26
	c13.4-0.2,16.5-22.8,30-23.3c14.6-0.5,18.6,25.6,36,27.3c16.5,1.7,23.2-20.6,39.3-18.7c16.6,2,19.3,26.9,34,27.3
	c14.2,0.4,17.9-22.7,34-24c17.7-1.4,25,25.5,40.7,23.3c14.6-2,13.5-26.1,36.7-37.3c13.8-6.7,19.9-0.8,28.7-8
	c13.6-11.1,17.4-40.1,2.7-57.3c-12.6-14.7-36.7-18.4-42-11.3c-6.5,8.8,18.9,30,10.7,45.3c-4.7,8.7-14.9,5.5-25.3,18
	c-9,10.8-6.8,19.6-12.7,21.3c-10.2,3-18.6-22.7-34.7-22.7c-14.2,0-17.3,20-32,20.7c-15.9,0.8-19.8-22-38.7-24
	c-17.3-1.8-21.9,16.5-40.7,15.3c-18.7-1.1-23.5-19.8-40-18c-13.6,1.5-14.8,14.7-26.7,14.7c-16.3,0-22.4-25.1-38-24
	c-10.1,0.7-12.4,11.6-19.3,10.7c-15.6-2.2-16.1-58.9-26-59.3C1027.1-47.9,1022.7-35.6,1021.1-27.7z"/>
<path class="st1" d="M744.3,534.5c-22,10.4-74.9-34.6-68.4-59.2c4-15,28.8-16.5,28.6-27.6c-0.2-14.2-40.8-16.5-43.9-33.7
	c-3.8-21,52.3-43.5,48-56.1c-3.8-10.9-47.7-1.7-51-12.2c-3.3-10.4,38.2-24.7,36.7-43.9c-1.3-17-34.9-18.2-38.8-38.8
	c-3.3-17.7,17-41.7,34.7-41.8c16-0.1,23,19.3,33.7,16.3c13.3-3.8,7.1-35.6,22.4-42.9c16.1-7.6,34,22.4,57.1,16.3
	c19.7-5.2,21.5-30.9,35.7-30.6c15.4,0.3,16.8,30.6,38.8,36.7c18,5,27.1-12.5,44.9-7.1c18.5,5.6,14.9,26.5,34.7,37.8
	c25.8,14.7,52.3-9.2,65.3,4.1c11.6,11.9,4.8,45.9-12.2,54.1c-17.6,8.4-33.9-16.6-56.1-9.2c-18.9,6.3-32.8,33.1-27.6,52
	c5.8,21.2,33.1,24.7,31.6,36.7c-1.2,9.9-19.9,9.4-46.9,28.6c-13.2,9.4-29.8,21.2-29.6,35.7c0.3,16.5,22.2,24.6,19.4,31.6
	c-3.4,8.6-34.9-7.2-63.3,7.1c-21,10.6-22,28.5-35.7,28.6c-18,0.1-37.4-30.6-30.6-41.8c9-15,60.5,11.6,75.5-8.2
	c10.5-13.8-9.1-34,2-51c13-19.9,49.2-7,57.1-23.5c7.9-16.4-25.7-34.4-20.4-61.2c4.6-23.4,33.2-25.1,37.8-52
	c2.2-12.9-1.5-30.2-11.2-34.7c-15.6-7.1-35.4,23.6-53.1,16.3c-12.7-5.2-10-24.2-22.4-27.6c-11.3-3-16.3,11.8-33.7,13.3
	c-20.1,1.7-30.5-16.6-40.8-11.2c-10.2,5.3-2.7,24.5-14.3,32.7c-12.7,8.9-33.7-6-38.8,1c-3.8,5.3,8.1,13.6,7.1,28.6
	c-1.1,16.1-15.9,21.8-13.3,30.6c3.3,11,27.1,5.9,32.7,17.3c7.1,14.7-26.8,33.5-22.4,57.1c3.8,20.3,31.6,22,32.7,39.8
	c1.2,20-33.1,31-29.6,45.9c3.3,13.9,34.9,12.3,37.8,27.6C755.8,523.1,750.7,531.5,744.3,534.5z"/>
</svg>
