<?xml version="1.0" standalone="no"?>
<!DOCTYPE svg PUBLIC "-//W3C//DTD SVG 20010904//EN"
 "http://www.w3.org/TR/2001/REC-SVG-20010904/DTD/svg10.dtd">
<svg version="1.0" xmlns="http://www.w3.org/2000/svg"
 width="700.000000pt" height="700.000000pt" viewBox="0 0 700.000000 700.000000"
 preserveAspectRatio="xMidYMid meet">
<metadata>
Created by potrace 1.11, written by Peter Selinger 2001-2013
</metadata>
<g transform="translate(0.000000,700.000000) scale(0.100000,-0.100000)"
fill="#000000" stroke="none">
<path d="M3486 6974 c-3 -9 -3 -21 1 -26 3 -6 2 -8 -3 -5 -6 3 -34 -40 -63
-96 -30 -56 -64 -120 -76 -143 -41 -73 -195 -371 -195 -376 0 -2 34 -4 75 -5
l74 0 19 61 c18 56 53 175 104 351 30 103 49 157 43 120 -11 -63 -15 -83 -40
-195 -15 -63 -29 -126 -31 -140 -3 -14 -11 -53 -19 -86 -8 -34 -16 -73 -19
-86 l-4 -25 148 1 c143 0 148 1 144 21 -14 75 -103 478 -115 518 -6 22 -8 41
-6 43 4 4 24 -63 123 -406 26 -91 49 -167 51 -170 6 -6 153 -8 153 -2 0 6
-168 328 -294 564 -22 42 -44 74 -48 72 -4 -3 -5 2 -2 10 3 9 2 16 -4 16 -5 0
-13 -7 -16 -16z"/>
<path d="M3071 6175 c-18 -21 -91 -175 -84 -175 21 1 241 167 243 182 0 11
-150 5 -159 -7z"/>
<path d="M3259 6128 c-30 -33 -73 -74 -96 -91 -23 -18 -43 -34 -43 -37 0 -3
171 -5 380 -5 209 0 380 2 380 5 -1 3 -21 21 -46 40 -25 19 -68 60 -96 90
l-51 55 -187 1 -186 1 -55 -59z"/>
<path d="M3776 6183 c-3 -3 16 -23 41 -45 50 -43 193 -142 198 -136 2 1 -18
44 -43 93 l-47 90 -72 1 c-39 1 -74 0 -77 -3z"/>
<path d="M3007 5853 c-3 -5 -8 -35 -11 -68 -4 -33 -12 -78 -18 -100 -5 -22
-11 -47 -13 -55 -22 -116 -158 -513 -210 -613 -8 -16 -15 -33 -15 -38 0 -4
-29 -74 -65 -154 -36 -79 -65 -148 -65 -152 0 -6 1733 -10 1784 -4 5 1 4 7 -1
14 -8 10 -95 201 -134 295 -5 12 -13 32 -18 45 -52 121 -149 391 -173 477 -13
47 -29 112 -33 130 -2 8 -8 33 -13 55 -9 34 -25 129 -26 160 -1 12 -982 19
-989 8z"/>
<path d="M2744 5688 c-65 -79 -184 -222 -264 -318 -79 -96 -152 -184 -161
-195 -23 -27 -283 -340 -324 -390 -18 -22 -125 -150 -237 -285 -112 -135 -207
-251 -211 -258 -7 -11 41 6 82 28 9 5 54 27 101 49 240 110 515 238 598 277
51 24 98 44 103 44 5 0 27 38 49 85 47 101 180 411 180 419 0 4 9 25 19 49 44
95 154 442 167 527 3 19 9 52 14 73 4 20 7 37 5 37 -1 0 -56 -64 -121 -142z"/>
<path d="M4140 5794 c5 -21 11 -52 13 -69 27 -172 180 -592 355 -972 l46 -102
96 -45 c208 -97 303 -141 480 -223 102 -47 216 -100 255 -118 38 -19 71 -33
72 -31 2 2 -198 248 -307 376 -21 25 -183 221 -361 435 -473 572 -611 737
-636 764 l-22 24 9 -39z"/>
<path d="M2626 4518 c21 -35 90 -147 108 -175 l21 -33 745 0 745 0 54 88 c30
48 61 97 69 110 l14 22 -881 0 c-703 0 -881 -3 -875 -12z"/>
<path d="M2405 4480 c-180 -83 -278 -128 -424 -197 -62 -29 -115 -53 -117 -53
-1 0 -58 -26 -126 -59 -68 -32 -147 -69 -175 -81 -29 -12 -53 -25 -53 -29 0
-9 96 -71 109 -71 6 0 11 -4 11 -10 0 -5 4 -10 10 -10 5 0 38 -18 72 -40 35
-22 68 -40 74 -40 10 0 68 25 264 117 41 20 122 57 180 83 58 26 148 68 200
92 52 25 114 53 138 63 23 11 42 24 42 30 0 6 -20 42 -45 80 -24 39 -54 87
-65 107 -11 20 -23 39 -27 41 -5 3 -35 -7 -68 -23z"/>
<path d="M4507 4472 c-97 -156 -117 -190 -117 -199 0 -5 73 -42 163 -83 89
-40 212 -97 272 -125 61 -28 172 -80 249 -115 l138 -64 42 23 c89 51 236 146
236 152 0 4 -22 16 -50 28 -27 12 -157 71 -287 132 -131 61 -265 123 -298 139
-33 15 -96 44 -140 65 -44 21 -104 48 -132 61 l-53 24 -23 -38z"/>
<path d="M2820 4156 c0 -7 5 -37 10 -67 6 -29 13 -71 15 -92 3 -21 7 -48 10
-60 2 -12 7 -40 10 -62 3 -22 26 -159 50 -305 24 -146 47 -282 50 -304 4 -21
8 -47 10 -56 2 -10 7 -40 11 -67 3 -26 8 -57 10 -68 2 -11 7 -40 10 -65 3 -25
7 -52 9 -60 3 -8 7 -33 10 -55 3 -22 10 -62 15 -90 5 -27 11 -66 14 -85 4 -29
44 -268 62 -375 3 -16 7 -41 9 -55 2 -14 8 -52 14 -85 5 -33 13 -78 16 -100 3
-23 8 -52 10 -65 3 -14 7 -38 10 -55 3 -16 8 -41 10 -55 3 -14 7 -41 9 -60 3
-19 7 -48 10 -65 10 -56 34 -205 42 -260 3 -16 9 -55 14 -85 5 -30 12 -68 14
-85 3 -16 12 -73 21 -125 9 -52 18 -106 20 -120 2 -14 11 -68 20 -120 9 -52
18 -108 21 -125 2 -16 7 -41 9 -55 3 -14 7 -41 9 -60 4 -29 23 -147 52 -325 3
-16 14 -81 25 -144 11 -62 17 -116 14 -119 -3 -3 -5 -1 -5 4 0 5 -23 119 -50
254 -28 135 -57 279 -65 320 -8 41 -17 84 -19 95 -3 11 -32 151 -65 310 -33
160 -64 310 -70 335 -5 25 -12 59 -15 75 -3 17 -33 163 -67 325 -33 162 -62
304 -64 315 -2 11 -17 85 -33 165 -37 178 -102 496 -108 530 -3 14 -11 53 -19
88 -8 34 -17 77 -20 95 -5 29 -36 178 -100 487 -13 63 -26 129 -29 145 -3 17
-17 84 -31 150 -14 66 -31 147 -37 180 -5 33 -14 64 -18 68 -6 7 -160 -62
-635 -283 -38 -18 -84 -39 -102 -46 l-31 -14 50 -117 c27 -65 58 -136 68 -158
9 -22 57 -132 104 -245 48 -113 96 -223 106 -245 9 -22 43 -101 75 -175 31
-74 63 -148 71 -165 7 -16 80 -187 162 -380 82 -192 158 -370 169 -395 11 -25
193 -449 403 -942 211 -493 387 -895 390 -893 4 2 6 -5 6 -17 -1 -12 5 -23 13
-26 8 -3 11 0 7 6 -3 6 -2 12 3 14 6 1 87 182 180 401 94 219 177 413 185 430
8 18 175 408 371 867 196 459 362 849 370 865 7 17 61 143 120 280 58 138 112
264 119 280 8 17 62 143 121 280 58 138 113 264 121 282 16 35 18 63 5 63 -5
0 -53 21 -108 46 -54 25 -125 59 -159 74 -270 127 -478 219 -483 215 -2 -3 -6
-15 -8 -27 -2 -12 -10 -51 -19 -87 -8 -37 -21 -97 -29 -136 -8 -38 -17 -81
-19 -95 -11 -50 -38 -181 -42 -207 -5 -26 -31 -147 -40 -188 -3 -11 -7 -31 -9
-45 -2 -14 -8 -47 -14 -75 -6 -27 -33 -160 -61 -295 -28 -135 -53 -256 -56
-270 -13 -70 -85 -417 -89 -430 -2 -8 -7 -28 -9 -45 -3 -16 -17 -86 -31 -155
-15 -69 -28 -136 -31 -150 -9 -49 -34 -171 -80 -387 -25 -120 -47 -229 -50
-243 -2 -14 -9 -47 -15 -75 -6 -27 -12 -60 -15 -72 -8 -46 -6 -33 -101 -493
-41 -201 -77 -376 -79 -389 -3 -13 -9 -40 -14 -60 -8 -30 -8 -27 -4 19 3 30 9
71 14 90 5 19 12 55 15 80 3 25 10 68 15 95 5 28 12 70 15 95 3 25 8 52 10 60
2 8 6 33 10 55 3 22 19 123 36 225 16 102 32 199 35 215 2 17 9 55 14 85 5 30
12 70 15 88 7 43 82 508 89 552 5 33 72 436 81 490 2 14 14 84 25 155 24 146
27 169 34 205 3 14 8 41 10 60 3 19 8 44 10 56 2 12 7 45 11 75 4 30 8 56 10
59 2 3 7 33 10 65 4 33 9 63 11 66 2 4 6 26 9 50 3 24 7 55 10 69 3 14 14 81
25 150 12 69 23 136 25 150 2 14 7 41 10 60 3 19 10 60 15 90 5 30 11 69 14
85 2 17 12 73 20 125 9 52 18 113 22 135 3 22 10 58 15 80 4 22 9 50 9 63 l0
22 -680 0 c-568 0 -680 -2 -680 -14z"/>
</g>
</svg>
