<?xml version="1.0" encoding="utf-8"?>
<svg version="1.1" xmlns="http://www.w3.org/2000/svg" xmlns:xlink="http://www.w3.org/1999/xlink" x="0px" y="0px"
	 viewBox="0 0 566.93 566.93" enable-background="new 0 0 566.93 566.93" xml:space="preserve">
<g id="Background" display="none">
	<rect display="inline" fill="#444444" stroke="#000000" stroke-miterlimit="10" width="566.93" height="566.93"/>
	<path display="inline" fill="#444444" stroke="#000000" stroke-miterlimit="10" d="M160,251.5"/>
</g>
<g id="Both_Sides" display="none">
	<g id="Right_Side" display="inline">
		<polygon fill="#B9E0E2" points="288.31,228.395 288.31,563.736 343.263,228.395 		"/>
		<polygon fill="#AFD6D8" points="288.31,563.736 418.336,259.903 356.539,231.413 		"/>
		<polygon fill="#3D6A5F" points="359.152,220.508 426.191,251.414 449.151,237.341 371.175,201.142 		"/>
		<polygon fill="#477C70" points="359.185,199.602 288.31,199.602 288.31,217.396 348.141,217.396 		"/>
		<path fill="#60AFA4" d="M327.888,92.75H288.31v95.852h72.024C351.554,169.885,330.63,122.69,327.888,92.75z"/>
		<path fill="#60AFA4" d="M307.511,71.244c-1.11-1.182-2.182-2.475-3.2-3.868c-0.214-0.313-0.408-0.664-0.618-0.988H288.31v15.363
			h31.268C315.787,78.901,311.543,75.572,307.511,71.244z"/>
		<path fill="#29917F" d="M310.94,67.908c4.251,4.11,8.972,7.34,13.004,10.026c2.266,1.461,4.324,2.725,6.159,3.816h0.218
			l-7.778-15.363h-13.009C310.009,66.894,310.438,67.429,310.94,67.908z"/>
		<path fill="#29917F" d="M446.601,224.029L339.152,94.535c4.034,32.148,29.108,85.26,34.006,95.402L446.601,224.029z"/>
		<path fill="#60AFA4" d="M299.713,52.664C294.009,26.832,288.31,1,288.31,1v54.389h12.004
			C300.11,54.478,299.912,53.576,299.713,52.664z"/>
		<path fill="#29917F" d="M304.26,55.389h12.605L288.31,1c0,0,7.445,25.385,14.887,50.77
			C303.553,52.981,303.904,54.179,304.26,55.389z"/>
	</g>
	<g id="Left_Side" display="inline">
		<polygon fill="#B9E0E2" points="288.31,228.395 288.31,563.736 233.358,228.395 		"/>
		<polygon fill="#AFD6D8" points="288.31,563.736 158.288,259.903 220.084,231.413 		"/>
		<polygon fill="#3D6A5F" points="217.47,220.506 150.431,251.414 127.472,237.342 205.449,201.142 		"/>
		<polygon fill="#477C70" points="217.438,199.602 288.31,199.602 288.31,217.396 228.482,217.396 		"/>
		<path fill="#60AFA4" d="M248.737,92.75h39.574v95.852h-72.022C225.07,169.885,245.995,122.69,248.737,92.75z"/>
		<path fill="#60AFA4" d="M269.112,71.244c1.112-1.182,2.181-2.475,3.202-3.868c0.215-0.313,0.407-0.664,0.617-0.988h15.38v15.363
			h-31.266C260.833,78.901,265.079,75.572,269.112,71.244z"/>
		<path fill="#29917F" d="M265.682,67.908c-4.251,4.11-8.971,7.34-13.003,10.026c-2.268,1.461-4.325,2.725-6.16,3.816h-0.218
			l7.78-15.363h13.006C266.615,66.894,266.185,67.429,265.682,67.908z"/>
		<path fill="#29917F" d="M130.023,224.029L237.469,94.535c-4.032,32.148-29.107,85.26-34.005,95.402L130.023,224.029z"/>
		<path fill="#60AFA4" d="M276.91,52.664C282.612,26.832,288.31,1,288.31,1v54.389h-12.002
			C276.513,54.478,276.711,53.576,276.91,52.664z"/>
		<path fill="#29917F" d="M272.363,55.389h-12.606L288.31,1c0,0-7.441,25.385-14.886,50.77
			C273.07,52.981,272.718,54.179,272.363,55.389z"/>
	</g>
</g>
<g id="Merged_Sides" display="none">
	<polygon display="inline" fill="#AFD6D8" points="288.31,563.666 418.335,259.833 356.538,231.343 	"/>
	<polygon display="inline" fill="#3D6A5F" points="359.151,220.438 426.19,251.344 449.15,237.271 371.174,201.072 	"/>
	<path display="inline" fill="#29917F" d="M310.939,67.838c4.251,4.11,8.972,7.34,13.004,10.026
		c2.266,1.461,4.324,2.725,6.159,3.816h0.218l-7.778-15.363h-13.009C310.008,66.824,310.437,67.359,310.939,67.838z"/>
	<path display="inline" fill="#29917F" d="M446.6,223.959L339.151,94.465c4.034,32.148,29.108,85.26,34.006,95.402L446.6,223.959z"
		/>
	<path display="inline" fill="#29917F" d="M304.259,55.319h12.605L288.31,0.93c0,0,7.445,25.385,14.887,50.77
		C303.552,52.911,303.903,54.109,304.259,55.319z"/>
	<polygon display="inline" fill="#B9E0E2" points="288.31,228.325 233.357,228.325 288.31,563.666 343.262,228.325 	"/>
	<polygon display="inline" fill="#AFD6D8" points="288.31,563.666 158.287,259.833 220.084,231.343 	"/>
	<polygon display="inline" fill="#3D6A5F" points="217.469,220.436 150.43,251.344 127.471,237.272 205.448,201.072 	"/>
	<polygon display="inline" fill="#477C70" points="288.31,199.532 217.437,199.532 228.481,217.326 288.31,217.326 348.14,217.326 
		359.184,199.532 	"/>
	<path display="inline" fill="#60AFA4" d="M327.887,92.68H288.31h-39.574c-2.742,29.94-23.667,77.135-32.448,95.853h72.022h72.024
		C351.553,169.815,330.629,122.62,327.887,92.68z"/>
	<path display="inline" fill="#60AFA4" d="M307.51,71.174c-1.11-1.182-2.182-2.475-3.2-3.868c-0.214-0.313-0.408-0.664-0.618-0.988
		H288.31h-15.38c-0.21,0.325-0.402,0.675-0.617,0.988c-1.021,1.393-2.089,2.686-3.202,3.868c-4.033,4.328-8.278,7.657-12.067,10.507
		h31.266h31.268C315.786,78.831,311.542,75.502,307.51,71.174z"/>
	<path display="inline" fill="#29917F" d="M265.681,67.838c-4.25,4.11-8.971,7.34-13.003,10.026
		c-2.268,1.461-4.325,2.725-6.16,3.816H246.3l7.78-15.363h13.006C266.614,66.824,266.185,67.359,265.681,67.838z"/>
	<path display="inline" fill="#29917F" d="M130.022,223.959L237.468,94.465c-4.032,32.148-29.107,85.26-34.005,95.402
		L130.022,223.959z"/>
	<path display="inline" fill="#60AFA4" d="M299.712,52.594C294.008,26.762,288.31,0.93,288.31,0.93s-5.698,25.832-11.4,51.664
		c-0.199,0.913-0.398,1.814-0.602,2.726h12.002h12.004C300.109,54.408,299.911,53.506,299.712,52.594z"/>
	<path display="inline" fill="#29917F" d="M272.362,55.319h-12.606L288.31,0.93c0,0-7.441,25.385-14.886,50.77
		C273.069,52.911,272.717,54.109,272.362,55.319z"/>
</g>
<g id="NEW">
	<g id="Background_1_" display="none">
		<rect display="inline" fill="#94CEB9" stroke="#000000" stroke-miterlimit="10" width="566.93" height="566.93"/>
		<path display="inline" fill="#94CEB9" stroke="#000000" stroke-miterlimit="10" d="M160,251.5"/>
	</g>
	<g id="Background_kopie" display="none">
		<rect display="inline" fill="#60BA8F" width="566.93" height="566.93"/>
		<path display="inline" fill="#74C1A3" stroke="#000000" stroke-miterlimit="10" d="M160,251.5"/>
	</g>
	<g id="Background_Round" display="none">
		<circle display="inline" fill="#94CEB9" cx="282.5" cy="283.465" r="283.465"/>
	</g>
	<g display="none">
		<polygon display="inline" fill="#DDECE9" points="287.685,563.43 417.061,261.112 355.573,232.764 		"/>
		<polygon display="inline" fill="#3E6A5F" points="358.173,221.913 424.878,252.665 447.723,238.662 370.136,202.643 		"/>
		<path display="inline" fill="#3E6A5F" d="M310.202,70.075c4.23,4.09,8.927,7.304,12.939,9.976
			c2.254,1.454,4.303,2.712,6.128,3.797h0.217l-7.74-15.287h-12.944C309.275,69.065,309.701,69.598,310.202,70.075z"/>
		<path display="inline" fill="#3E6A5F" d="M445.185,225.417L338.273,96.569c4.014,31.988,28.963,84.834,33.836,94.926
			L445.185,225.417z"/>
		<path display="inline" fill="#3E6A5F" d="M303.554,57.618h12.543L287.685,3.5c0,0,7.408,25.259,14.813,50.517
			C302.851,55.222,303.201,56.414,303.554,57.618z"/>
		<polygon display="inline" fill="#DDECE9" points="287.685,229.761 233.006,229.761 287.685,563.43 342.363,229.761 		"/>
		<polygon display="inline" fill="#DDECE9" points="287.685,563.43 158.311,261.112 219.799,232.764 		"/>
		<polygon display="inline" fill="#3E6A5F" points="217.197,221.912 150.492,252.665 127.648,238.664 205.236,202.643 		"/>
		<polygon display="inline" fill="#3E6A5F" points="287.685,201.111 217.165,201.111 228.154,218.817 287.685,218.817 
			347.216,218.817 358.205,201.111 		"/>
		<path display="inline" fill="#3E6A5F" d="M327.064,94.792h-39.38h-39.376c-2.728,29.791-23.548,76.751-32.286,95.374h71.663
			h71.664C350.612,171.543,329.793,124.583,327.064,94.792z"/>
		<path display="inline" fill="#3E6A5F" d="M306.789,73.394c-1.105-1.176-2.171-2.463-3.184-3.849
			c-0.213-0.311-0.406-0.66-0.615-0.983h-15.305h-15.303c-0.209,0.323-0.4,0.672-0.614,0.983c-1.016,1.386-2.079,2.673-3.186,3.849
			c-4.013,4.307-8.237,7.619-12.007,10.454h31.11h31.112C315.024,81.012,310.801,77.7,306.789,73.394z"/>
		<path display="inline" fill="#3E6A5F" d="M265.169,70.075c-4.229,4.09-8.926,7.304-12.938,9.976
			c-2.256,1.454-4.304,2.712-6.129,3.797h-0.217l7.741-15.287h12.941C266.097,69.065,265.67,69.598,265.169,70.075z"/>
		<path display="inline" fill="#3E6A5F" d="M130.187,225.417l106.91-128.848c-4.012,31.988-28.962,84.834-33.836,94.926
			L130.187,225.417z"/>
		<path display="inline" fill="#3E6A5F" d="M299.03,54.906C293.354,29.203,287.685,3.5,287.685,3.5s-5.67,25.703-11.343,51.406
			c-0.198,0.908-0.396,1.805-0.599,2.712h11.942h11.944C299.426,56.711,299.228,55.814,299.03,54.906z"/>
		<path display="inline" fill="#3E6A5F" d="M271.817,57.618h-12.543L287.685,3.5c0,0-7.404,25.259-14.812,50.517
			C272.52,55.222,272.17,56.414,271.817,57.618z"/>
	</g>
	<g>
		<polygon fill="#DDECE9" points="283.464,566.93 414.458,260.832 352.201,232.13 		"/>
		<polygon fill="#3E6A5F" points="354.833,221.144 422.372,252.28 445.503,238.102 366.946,201.633 		"/>
		<path fill="#3E6A5F" d="M306.262,67.407c4.283,4.141,9.039,7.395,13.101,10.101c2.283,1.472,4.357,2.745,6.205,3.845h0.219
			l-7.836-15.478h-13.106C305.324,66.385,305.756,66.924,306.262,67.407z"/>
		<path fill="#3E6A5F" d="M442.933,224.691L334.684,94.232c4.064,32.387,29.325,85.895,34.259,96.113L442.933,224.691z"/>
		<path fill="#3E6A5F" d="M299.532,54.795h12.699L283.464,0c0,0,7.501,25.574,14.998,51.148
			C298.82,52.369,299.174,53.576,299.532,54.795z"/>
		<polygon fill="#DDECE9" points="283.464,229.09 228.102,229.09 283.464,566.93 338.825,229.09 		"/>
		<polygon fill="#DDECE9" points="283.464,566.93 152.472,260.832 214.729,232.13 		"/>
		<polygon fill="#3E6A5F" points="212.095,221.142 144.557,252.28 121.426,238.104 199.985,201.633 		"/>
		<polygon fill="#3E6A5F" points="283.464,200.082 212.063,200.082 223.189,218.009 283.464,218.009 343.74,218.009 
			354.866,200.082 		"/>
		<path fill="#3E6A5F" d="M323.336,92.434h-39.872h-39.869c-2.762,30.164-23.843,77.71-32.69,96.567h72.559h72.56
			C347.178,170.144,326.099,122.597,323.336,92.434z"/>
		<path fill="#3E6A5F" d="M302.807,70.768c-1.119-1.19-2.198-2.494-3.224-3.897c-0.215-0.315-0.411-0.669-0.623-0.996h-15.497
			h-15.494c-0.212,0.327-0.405,0.68-0.622,0.996c-1.029,1.403-2.105,2.706-3.226,3.897c-4.063,4.36-8.34,7.714-12.157,10.585h31.499
			h31.501C311.145,78.481,306.869,75.128,302.807,70.768z"/>
		<path fill="#3E6A5F" d="M260.667,67.407c-4.282,4.141-9.038,7.395-13.1,10.101c-2.285,1.472-4.357,2.745-6.206,3.845h-0.219
			l7.838-15.478h13.103C261.606,66.385,261.174,66.924,260.667,67.407z"/>
		<path fill="#3E6A5F" d="M123.997,224.691L232.243,94.232c-4.062,32.387-29.324,85.895-34.259,96.113L123.997,224.691z"/>
		<path fill="#3E6A5F" d="M294.951,52.049C289.205,26.025,283.464,0,283.464,0s-5.741,26.025-11.485,52.049
			c-0.201,0.919-0.4,1.827-0.606,2.746h12.091h12.093C295.352,53.876,295.152,52.968,294.951,52.049z"/>
		<path fill="#3E6A5F" d="M267.398,54.795h-12.7L283.464,0c0,0-7.497,25.574-14.997,51.148
			C268.11,52.369,267.755,53.576,267.398,54.795z"/>
	</g>
	<g display="none">
		<g id="XMLID_78_" display="inline">
			<g id="XMLID_30_">
				<g id="XMLID_48_">
					<polygon id="XMLID_51_" fill="#DDEBE9" points="202.482,532.96 254.657,396.65 216.115,537.228 					"/>
				</g>
				<g id="XMLID_46_">
					<polygon id="XMLID_47_" fill="#DDEBE9" points="137.625,498.719 240.83,364.338 149.343,506.888 					"/>
				</g>
				<g id="XMLID_44_">
					<polygon id="XMLID_45_" fill="#DDEBE9" points="86.066,446.559 232.215,342.96 94.785,457.874 					"/>
				</g>
				<g id="XMLID_42_">
					<polygon id="XMLID_43_" fill="#DDEBE9" points="52.578,381.31 224.431,326.017 57.491,394.723 					"/>
				</g>
				<g id="XMLID_40_">
					<polygon id="XMLID_41_" fill="#DDEBE9" points="40.26,309.01 216.71,307.974 40.913,323.28 					"/>
				</g>
				<g id="XMLID_37_">
					<polygon id="XMLID_39_" fill="#DDEBE9" points="50.254,236.353 207.035,286.02 46.585,250.158 					"/>
				</g>
				<g id="XMLID_35_">
					<polygon id="XMLID_36_" fill="#DDEBE9" points="81.634,170.064 191.801,250.42 73.983,182.127 					"/>
				</g>
				<polygon id="XMLID_82_" fill="#DDEBE9" points="281.296,457.874 274.634,546.113 281.295,546.1 				"/>
			</g>
			<g id="XMLID_52_">
				<g id="XMLID_74_">
					<polygon id="XMLID_77_" fill="#DDEBE9" points="360.109,532.96 307.934,396.65 346.477,537.228 					"/>
				</g>
				<g id="XMLID_72_">
					<polygon id="XMLID_73_" fill="#DDEBE9" points="424.966,498.719 321.762,364.338 413.248,506.888 					"/>
				</g>
				<g id="XMLID_68_">
					<polygon id="XMLID_71_" fill="#DDEBE9" points="476.526,446.559 330.376,342.96 467.806,457.874 					"/>
				</g>
				<g id="XMLID_66_">
					<polygon id="XMLID_67_" fill="#DDEBE9" points="510.014,381.31 338.161,326.017 505.101,394.723 					"/>
				</g>
				<g id="XMLID_62_">
					<polygon id="XMLID_63_" fill="#DDEBE9" points="522.331,309.01 345.882,307.974 521.679,323.28 					"/>
				</g>
				<g id="XMLID_58_">
					<polygon id="XMLID_61_" fill="#DDEBE9" points="512.337,236.353 355.556,286.02 516.006,250.158 					"/>
				</g>
				<g id="XMLID_56_">
					<polygon id="XMLID_57_" fill="#DDEBE9" points="480.957,170.064 370.79,250.42 488.608,182.127 					"/>
				</g>
				<polygon id="XMLID_53_" fill="#DDEBE9" points="281.296,457.874 287.957,546.113 281.296,546.1 				"/>
			</g>
		</g>
		<g id="Logo_3_" display="inline">
			<polygon id="XMLID_162_" fill="#DDEBE9" points="281.295,444.982 380.113,214.072 333.148,192.42 			"/>
			<polygon id="XMLID_161_" fill="#3D6A5F" points="335.134,184.132 386.083,207.62 403.532,196.925 344.271,169.414 			"/>
			<path id="XMLID_160_" fill="#3D6A5F" d="M298.493,68.158c3.231,3.124,6.818,5.579,9.883,7.62c1.722,1.11,3.286,2.071,4.681,2.9
				h0.166l-5.911-11.676h-9.887C297.785,67.388,298.111,67.794,298.493,68.158z"/>
			<path id="XMLID_159_" fill="#3D6A5F" d="M401.594,186.809l-81.659-98.414c3.066,24.432,22.122,64.796,25.844,72.505
				L401.594,186.809z"/>
			<path id="XMLID_158_" fill="#3D6A5F" d="M293.416,58.644h9.58l-21.701-41.335c0,0,5.658,19.293,11.314,38.585
				C292.879,56.814,293.146,57.725,293.416,58.644z"/>
			<polygon id="XMLID_157_" fill="#DDEBE9" points="281.295,190.126 239.532,190.126 281.295,444.982 323.058,190.126 			"/>
			<polygon id="XMLID_156_" fill="#DDEBE9" points="281.295,444.982 182.48,214.072 229.444,192.42 			"/>
			<polygon id="XMLID_155_" fill="#3D6A5F" points="227.457,184.131 176.508,207.62 159.06,196.926 218.321,169.414 			"/>
			<polygon id="XMLID_154_" fill="#3D6A5F" points="281.295,168.244 227.433,168.244 235.826,181.767 281.295,181.767 
				326.765,181.767 335.159,168.244 			"/>
			<path id="XMLID_153_" fill="#3D6A5F" d="M311.373,87.038h-30.078H251.22c-2.084,22.754-17.986,58.622-24.66,72.847h54.736h54.737
				C329.359,145.66,313.457,109.792,311.373,87.038z"/>
			<path id="XMLID_152_" fill="#3D6A5F" d="M295.887,70.694c-0.844-0.898-1.658-1.881-2.432-2.94
				c-0.162-0.238-0.31-0.504-0.47-0.751h-11.69h-11.688c-0.16,0.247-0.306,0.513-0.469,0.751c-0.776,1.059-1.588,2.042-2.433,2.94
				c-3.065,3.289-6.291,5.819-9.171,7.985h23.761h23.763C302.177,76.513,298.951,73.983,295.887,70.694z"/>
			<path id="XMLID_150_" fill="#3D6A5F" d="M264.098,68.158c-3.23,3.124-6.818,5.579-9.882,7.62c-1.723,1.11-3.287,2.071-4.682,2.9
				h-0.165l5.913-11.676h9.885C264.806,67.388,264.48,67.794,264.098,68.158z"/>
			<path id="XMLID_140_" fill="#3D6A5F" d="M160.999,186.809l81.657-98.414c-3.064,24.432-22.121,64.796-25.844,72.505
				L160.999,186.809z"/>
			<path id="XMLID_139_" fill="#3D6A5F" d="M289.961,56.573c-4.335-19.632-8.666-39.264-8.666-39.264s-4.331,19.632-8.664,39.264
				c-0.151,0.694-0.302,1.379-0.457,2.071h9.121h9.123C290.263,57.951,290.112,57.266,289.961,56.573z"/>
			<path id="XMLID_138_" fill="#3D6A5F" d="M269.175,58.644h-9.58l21.7-41.335c0,0-5.655,19.293-11.313,38.585
				C269.713,56.814,269.445,57.725,269.175,58.644z"/>
		</g>
	</g>
</g>
<g id="Merged_Sides_Tweaked_2_Flat" display="none">
	<polygon display="inline" fill="#AFD6D8" points="288.31,563.666 418.335,259.833 356.538,231.343 	"/>
	<polygon display="inline" fill="#477C70" points="359.151,220.438 426.19,251.344 449.15,237.271 371.174,201.072 	"/>
	<path display="inline" fill="#60AFA4" d="M310.939,67.838c4.251,4.11,8.972,7.34,13.004,10.026
		c2.266,1.461,4.324,2.725,6.159,3.816h0.218l-7.778-15.363h-13.009C310.008,66.824,310.437,67.359,310.939,67.838z"/>
	<path display="inline" fill="#60AFA4" d="M446.6,223.959L339.151,94.465c4.034,32.148,29.108,85.26,34.006,95.402L446.6,223.959z"
		/>
	<path display="inline" fill="#60AFA4" d="M304.259,55.319h12.605L288.31,0.93c0,0,7.445,25.385,14.887,50.77
		C303.552,52.911,303.903,54.109,304.259,55.319z"/>
	<polygon display="inline" fill="#B9E0E2" points="288.31,228.325 233.357,228.325 288.31,563.666 343.262,228.325 	"/>
	<polygon display="inline" fill="#AFD6D8" points="288.31,563.666 158.287,259.833 220.084,231.343 	"/>
	<polygon display="inline" fill="#477C70" points="217.469,220.436 150.43,251.344 127.471,237.272 205.448,201.072 	"/>
	<polygon display="inline" fill="#477C70" points="288.31,199.532 217.437,199.532 228.481,217.326 288.31,217.326 348.14,217.326 
		359.184,199.532 	"/>
	<path display="inline" fill="#60AFA4" d="M327.887,92.68H288.31h-39.574c-2.742,29.94-23.667,77.135-32.448,95.853h72.022h72.024
		C351.553,169.815,330.629,122.62,327.887,92.68z"/>
	<path display="inline" fill="#60AFA4" d="M307.51,71.174c-1.11-1.182-2.182-2.475-3.2-3.868c-0.214-0.313-0.408-0.664-0.618-0.988
		H288.31h-15.38c-0.21,0.325-0.402,0.675-0.617,0.988c-1.021,1.393-2.089,2.686-3.202,3.868c-4.033,4.328-8.278,7.657-12.067,10.507
		h31.266h31.268C315.786,78.831,311.542,75.502,307.51,71.174z"/>
	<path display="inline" fill="#60AFA4" d="M265.681,67.838c-4.25,4.11-8.971,7.34-13.003,10.026
		c-2.268,1.461-4.325,2.725-6.16,3.816H246.3l7.78-15.363h13.006C266.614,66.824,266.185,67.359,265.681,67.838z"/>
	<path display="inline" fill="#60AFA4" d="M130.022,223.959L237.468,94.465c-4.032,32.148-29.107,85.26-34.005,95.402
		L130.022,223.959z"/>
	<path display="inline" fill="#60AFA4" d="M299.712,52.594C294.008,26.762,288.31,0.93,288.31,0.93s-5.698,25.832-11.4,51.664
		c-0.199,0.913-0.398,1.814-0.602,2.726h12.002h12.004C300.109,54.408,299.911,53.506,299.712,52.594z"/>
	<path display="inline" fill="#60AFA4" d="M272.362,55.319h-12.606L288.31,0.93c0,0-7.441,25.385-14.886,50.77
		C273.069,52.911,272.717,54.109,272.362,55.319z"/>
</g>
<g id="Merged_Sides_Tweaked_2" display="none">
	<polygon display="inline" fill="#AFD6D8" points="288.31,563.666 418.335,259.833 356.538,231.343 	"/>
	<polygon display="inline" fill="#437163" points="359.151,220.438 426.19,251.344 449.15,237.271 371.174,201.072 	"/>
	<path display="inline" fill="#56A093" d="M310.939,67.838c4.251,4.11,8.972,7.34,13.004,10.026
		c2.266,1.461,4.324,2.725,6.159,3.816h0.218l-7.778-15.363h-13.009C310.008,66.824,310.437,67.359,310.939,67.838z"/>
	<path display="inline" fill="#54A093" d="M446.6,223.959L339.151,94.465c4.034,32.148,29.108,85.26,34.006,95.402L446.6,223.959z"
		/>
	<path display="inline" fill="#56A093" d="M304.259,55.319h12.605L288.31,0.93c0,0,7.445,25.385,14.887,50.77
		C303.552,52.911,303.903,54.109,304.259,55.319z"/>
	<polygon display="inline" fill="#B9E0E2" points="288.31,228.325 233.357,228.325 288.31,563.666 343.262,228.325 	"/>
	<polygon display="inline" fill="#AFD6D8" points="288.31,563.666 158.287,259.833 220.084,231.343 	"/>
	<polygon display="inline" fill="#437163" points="217.469,220.436 150.43,251.344 127.471,237.272 205.448,201.072 	"/>
	<polygon display="inline" fill="#477C70" points="288.31,199.532 217.437,199.532 228.481,217.326 288.31,217.326 348.14,217.326 
		359.184,199.532 	"/>
	<path display="inline" fill="#60AFA4" d="M327.887,92.68H288.31h-39.574c-2.742,29.94-23.667,77.135-32.448,95.853h72.022h72.024
		C351.553,169.815,330.629,122.62,327.887,92.68z"/>
	<path display="inline" fill="#60AFA4" d="M307.51,71.174c-1.11-1.182-2.182-2.475-3.2-3.868c-0.214-0.313-0.408-0.664-0.618-0.988
		H288.31h-15.38c-0.21,0.325-0.402,0.675-0.617,0.988c-1.021,1.393-2.089,2.686-3.202,3.868c-4.033,4.328-8.278,7.657-12.067,10.507
		h31.266h31.268C315.786,78.831,311.542,75.502,307.51,71.174z"/>
	<path display="inline" fill="#56A093" d="M265.681,67.838c-4.25,4.11-8.971,7.34-13.003,10.026
		c-2.268,1.461-4.325,2.725-6.16,3.816H246.3l7.78-15.363h13.006C266.614,66.824,266.185,67.359,265.681,67.838z"/>
	<path display="inline" fill="#54A093" d="M130.022,223.959L237.468,94.465c-4.032,32.148-29.107,85.26-34.005,95.402
		L130.022,223.959z"/>
	<path display="inline" fill="#60AFA4" d="M299.712,52.594C294.008,26.762,288.31,0.93,288.31,0.93s-5.698,25.832-11.4,51.664
		c-0.199,0.913-0.398,1.814-0.602,2.726h12.002h12.004C300.109,54.408,299.911,53.506,299.712,52.594z"/>
	<path display="inline" fill="#56A093" d="M272.362,55.319h-12.606L288.31,0.93c0,0-7.441,25.385-14.886,50.77
		C273.069,52.911,272.717,54.109,272.362,55.319z"/>
</g>
<g id="Merged_Sides_Tweaked" display="none">
	<polygon display="inline" fill="#AFD6D8" points="288.31,563.666 418.335,259.833 356.538,231.343 	"/>
	<polygon display="inline" fill="#3D6A5F" points="359.151,220.438 426.19,251.344 449.15,237.271 371.174,201.072 	"/>
	<path display="inline" fill="#288472" d="M310.939,67.838c4.251,4.11,8.972,7.34,13.004,10.026
		c2.266,1.461,4.324,2.725,6.159,3.816h0.218l-7.778-15.363h-13.009C310.008,66.824,310.437,67.359,310.939,67.838z"/>
	<path display="inline" fill="#288472" d="M446.6,223.959L339.151,94.465c4.034,32.148,29.108,85.26,34.006,95.402L446.6,223.959z"
		/>
	<path display="inline" fill="#2A8775" d="M304.259,55.319h12.605L288.31,0.93c0,0,7.445,25.385,14.887,50.77
		C303.552,52.911,303.903,54.109,304.259,55.319z"/>
	<polygon display="inline" fill="#B9E0E2" points="288.31,228.325 233.357,228.325 288.31,563.666 343.262,228.325 	"/>
	<polygon display="inline" fill="#AFD6D8" points="288.31,563.666 158.287,259.833 220.084,231.343 	"/>
	<polygon display="inline" fill="#3D6A5F" points="217.469,220.436 150.43,251.344 127.471,237.272 205.448,201.072 	"/>
	<polygon display="inline" fill="#3D7365" points="288.31,199.532 217.437,199.532 228.481,217.326 288.31,217.326 348.14,217.326 
		359.184,199.532 	"/>
	<path display="inline" fill="#2C9E88" d="M327.887,92.68H288.31h-39.574c-2.742,29.94-23.667,77.135-32.448,95.853h72.022h72.024
		C351.553,169.815,330.629,122.62,327.887,92.68z"/>
	<path display="inline" fill="#2CA08A" d="M307.51,71.174c-1.11-1.182-2.182-2.475-3.2-3.868c-0.214-0.313-0.408-0.664-0.618-0.988
		H288.31h-15.38c-0.21,0.325-0.402,0.675-0.617,0.988c-1.021,1.393-2.089,2.686-3.202,3.868c-4.033,4.328-8.278,7.657-12.067,10.507
		h31.266h31.268C315.786,78.831,311.542,75.502,307.51,71.174z"/>
	<path display="inline" fill="#288472" d="M265.681,67.838c-4.25,4.11-8.971,7.34-13.003,10.026
		c-2.268,1.461-4.325,2.725-6.16,3.816H246.3l7.78-15.363h13.006C266.614,66.824,266.185,67.359,265.681,67.838z"/>
	<path display="inline" fill="#288472" d="M130.022,223.959L237.468,94.465c-4.032,32.148-29.107,85.26-34.005,95.402
		L130.022,223.959z"/>
	<path display="inline" fill="#2CA08A" d="M299.712,52.594C294.008,26.762,288.31,0.93,288.31,0.93s-5.698,25.832-11.4,51.664
		c-0.199,0.913-0.398,1.814-0.602,2.726h12.002h12.004C300.109,54.408,299.911,53.506,299.712,52.594z"/>
	<path display="inline" fill="#2A8775" d="M272.362,55.319h-12.606L288.31,0.93c0,0-7.441,25.385-14.886,50.77
		C273.069,52.911,272.717,54.109,272.362,55.319z"/>
</g>
</svg>
